<?xml version="1.0" standalone="no"?>
<!DOCTYPE svg PUBLIC "-//W3C//DTD SVG 20010904//EN"
 "http://www.w3.org/TR/2001/REC-SVG-20010904/DTD/svg10.dtd">
<svg version="1.0" xmlns="http://www.w3.org/2000/svg"
 width="512.000000pt" height="512.000000pt" viewBox="0 0 512.000000 512.000000"
 preserveAspectRatio="xMidYMid meet">
<metadata>
Created by potrace 1.14, written by Peter Selinger 2001-2017
</metadata>
<g transform="translate(0.000000,512.000000) scale(0.100000,-0.100000)"
fill="#000000" stroke="none">
<path d="M805 5113 c-386 -52 -734 -396 -795 -785 -8 -53 -10 -545 -8 -1813 4
-1963 -4 -1775 84 -1963 130 -278 376 -474 674 -538 97 -20 3503 -20 3600 0
195 42 363 136 500 282 81 86 125 151 174 256 88 188 80 0 84 1963 2 1268 0
1760 -8 1813 -54 347 -338 663 -685 764 l-80 23 -1755 1 c-965 1 -1768 -1
-1785 -3z m1095 -528 c142 -26 383 -98 522 -156 68 -28 130 -51 138 -51 8 0
70 23 138 51 139 59 378 130 527 157 78 15 146 19 315 18 198 0 222 -3 311
-26 350 -94 630 -371 722 -713 50 -186 49 -459 -3 -709 -32 -154 -107 -396
-160 -512 -16 -37 -30 -74 -30 -83 0 -9 20 -64 44 -123 128 -308 186 -573 186
-848 0 -377 -124 -652 -389 -862 -121 -97 -275 -165 -453 -202 -100 -21 -344
-21 -481 -1 -195 30 -482 112 -645 185 -35 17 -73 30 -82 30 -9 0 -47 -13 -82
-30 -163 -73 -450 -155 -645 -185 -147 -22 -384 -20 -498 4 -201 42 -361 123
-499 252 -167 156 -258 318 -308 549 -25 112 -30 359 -10 480 36 218 107 468
184 648 25 57 38 102 35 115 -3 12 -26 72 -51 132 -90 221 -156 484 -178 705
-13 138 -1 305 31 432 102 399 428 694 837 758 92 14 414 5 524 -15z"/>
<path d="M1443 4409 c-227 -29 -423 -133 -553 -292 -184 -225 -233 -551 -144
-955 28 -124 100 -358 113 -366 4 -3 18 14 31 37 52 95 195 300 296 427 131
163 495 532 652 658 131 106 264 200 399 282 l95 59 -38 16 c-65 27 -264 85
-360 105 -175 36 -355 47 -491 29z"/>
<path d="M3366 4409 c-44 -5 -116 -16 -160 -24 -132 -26 -427 -118 -415 -129
2 -2 54 -34 114 -72 253 -158 512 -371 761 -626 228 -234 443 -511 571 -735
l21 -38 16 36 c8 20 31 88 50 152 115 377 121 698 19 950 -35 86 -123 216
-186 273 -196 178 -458 248 -791 213z"/>
<path d="M2470 4114 c-274 -147 -506 -321 -774 -584 -315 -308 -526 -579 -691
-882 l-47 -88 47 -87 c304 -563 909 -1170 1457 -1462 l97 -52 53 27 c554 280
1192 911 1503 1487 l47 87 -47 88 c-151 279 -333 518 -605 796 -210 215 -401
375 -625 526 -76 52 -314 190 -325 190 -3 0 -43 -21 -90 -46z m771 -994 c107
-55 134 -215 51 -304 -55 -59 -86 -66 -309 -66 l-202 0 -3 -427 -3 -428 -23
-38 c-13 -20 -40 -50 -60 -65 -32 -24 -44 -27 -113 -27 -71 0 -80 2 -116 31
-81 66 -78 46 -81 527 l-3 427 -222 0 c-195 0 -227 3 -262 19 -47 22 -89 64
-104 104 -26 69 -4 175 45 218 57 50 35 48 722 49 628 0 644 0 683 -20z"/>
<path d="M852 2314 c-20 -39 -81 -243 -106 -354 -79 -362 -52 -644 85 -878 43
-72 178 -207 252 -251 230 -136 519 -165 873 -86 116 26 374 105 374 114 -1 3
-54 38 -118 78 -370 225 -759 582 -1066 977 -67 86 -194 272 -263 385 -19 31
-22 32 -31 15z"/>
<path d="M4195 2232 c-310 -504 -832 -1023 -1327 -1320 -43 -26 -78 -49 -78
-53 0 -9 259 -88 375 -114 274 -60 483 -60 680 2 217 68 376 202 473 397 107
215 127 477 62 797 -21 102 -105 375 -118 383 -4 2 -34 -39 -67 -92z"/>
</g>
</svg>
