<svg width="100px" viewBox="0 0 16000 4500" version="1.0" xmlns="http://www.w3.org/2000/svg"
  preserveAspectRatio="xMidYMid meet">
  <g fill="hsl(208, 56%, 46%)" stroke="none">
    <path
      d="M910 1933 l0 -1438 -455 3 -455 2 0 -250 0 -250 1205 0 1205 0 -2 248 -3 247 -458 0 -457 0 0 1438 0 1437 -290 0 -290 0 0 -1437z">
    </path>
    <path
      d="M2687 3395 c-104 -18 -232 -79 -314 -151 -131 -115 -197 -261 -210 -464 -16 -265 81 -494 267 -629 127 -93 303 -152 545 -186 61 -8 224 -31 363 -52 l252 -37 0 -35 c0 -187 -85 -333 -232 -402 l-73 -34 -175 1 c-161 0 -182 3 -265 27 -125 38 -257 103 -364 181 l-91 65 0 -234 0 -233 58 -32 c210 -114 489 -179 773 -180 313 0 522 69 671 223 121 124 185 281 208 506 6 61 10 412 10 867 l0 764 -260 0 -260 0 0 -177 0 -176 -49 69 c-51 72 -113 140 -171 187 -66 52 -211 116 -301 132 -101 18 -275 18 -382 0z m481 -401 c158 -32 295 -145 370 -304 39 -84 52 -162 52 -328 l0 -134 -27 6 c-45 9 -352 53 -423 61 -134 14 -276 57 -348 107 -100 69 -146 223 -109 366 48 182 247 275 485 226z">
    </path>
    <path
      d="M5280 4425 c-63 -7 -131 -16 -150 -19 -76 -16 -258 -70 -307 -92 l-53 -23 0 -245 0 -245 58 32 c90 51 198 96 317 134 296 92 666 59 863 -76 117 -80 195 -187 242 -329 40 -122 52 -221 48 -411 l-3 -163 -37 54 c-21 30 -68 85 -105 122 -172 174 -360 246 -635 246 -195 0 -361 -47 -502 -143 -72 -48 -185 -163 -236 -237 -88 -131 -159 -327 -182 -504 -14 -115 -14 -379 1 -516 21 -193 102 -439 181 -550 11 -15 20 -31 20 -35 0 -4 22 -35 49 -69 195 -243 435 -355 764 -356 289 -1 488 96 651 314 l36 49 0 -157 0 -156 265 0 265 0 0 1138 c0 1213 -1 1231 -50 1437 -25 103 -79 242 -115 297 -14 21 -25 41 -25 44 0 4 -16 28 -37 53 -158 199 -331 305 -622 381 -142 37 -480 49 -701 25z m619 -1467 c160 -60 284 -184 349 -349 47 -119 52 -160 52 -448 0 -217 -3 -278 -16 -322 -54 -180 -191 -329 -356 -385 -149 -51 -345 -33 -476 43 -141 83 -244 236 -296 439 -42 167 -37 469 10 619 77 239 256 407 459 428 78 9 218 -4 274 -25z">
    </path>
    <path
      d="M8275 3395 c-168 -25 -356 -102 -485 -199 -68 -51 -171 -150 -204 -196 -40 -56 -126 -197 -126 -207 0 -4 -14 -41 -30 -81 -52 -123 -74 -268 -74 -487 0 -270 32 -429 127 -624 106 -218 286 -389 515 -490 174 -76 353 -111 580 -111 161 0 245 10 380 47 369 98 612 353 722 758 18 68 40 275 40 385 0 442 -154 781 -455 1004 -105 78 -189 118 -355 172 -128 41 -450 56 -635 29z m399 -415 c90 -13 203 -65 272 -124 174 -150 255 -430 224 -768 -14 -149 -27 -209 -70 -310 -48 -111 -126 -205 -226 -272 -83 -54 -260 -93 -379 -82 -83 7 -204 41 -261 73 -45 25 -153 116 -169 143 -5 9 -22 32 -36 51 -42 55 -95 187 -115 284 -27 131 -25 367 4 493 50 218 169 375 349 463 112 55 251 71 407 49z">
    </path>
    <path fill="hsl(208, 56%, 46%)"
      d="M11160 4269 c-41 -11 -84 -23 -95 -28 -11 -5 -51 -21 -90 -37 -184 -74 -380 -225 -511 -396 -89 -115 -189 -310 -209 -408 -4 -19 -11 -39 -15 -45 -4 -5 -11 -26 -16 -45 -11 -50 -16 -2269 -5 -2300 5 -14 16 -52 26 -85 41 -151 98 -269 193 -404 114 -162 314 -332 477 -406 120 -54 160 -69 245 -92 61 -17 184 -18 1945 -18 1780 0 1884 1 1955 18 41 10 79 23 85 28 5 5 15 9 23 9 7 0 38 11 68 25 30 14 56 25 58 25 10 0 163 95 214 132 83 61 220 203 273 283 82 124 95 148 137 245 34 80 42 104 59 175 16 64 18 164 18 1205 0 1058 -1 1139 -18 1200 -22 78 -43 143 -56 167 -5 10 -28 55 -50 101 -87 177 -245 354 -418 471 -74 49 -225 127 -268 137 -16 4 -34 10 -40 15 -5 4 -49 17 -96 28 -86 21 -94 21 -1950 20 -1809 -1 -1866 -1 -1939 -20z">
    </path>
  </g>
  <g fill="white" stroke="none">
    <path d="M11145 3358 c-3 -7 -4 -557 -3 -1223 l3 -1210 300 0 300 0 0 1220 0 1220 -298 3 c-233 2 -299 0 -302 -10z">
    </path>
    <path
      d="M13045 3348 c-120 -30 -188 -55 -260 -94 -131 -71 -194 -126 -268 -237 -90 -134 -122 -222 -137 -375 -12 -122 -11 -878 1 -992 4 -47 9 -92 10 -100 3 -31 38 -128 67 -186 77 -153 225 -297 367 -357 70 -29 100 -41 115 -43 8 -2 33 -8 55 -14 22 -6 58 -14 80 -17 48 -9 1262 -9 1320 -1 67 9 145 29 173 44 15 8 30 14 34 14 25 0 165 97 223 155 87 86 134 157 178 266 67 166 67 172 64 762 -4 598 -2 587 -79 748 -35 75 -61 113 -119 173 -127 134 -258 205 -472 255 -61 14 -1294 13 -1352 -1z m1288 -594 c29 -9 66 -30 84 -47 60 -56 62 -74 62 -570 0 -428 -1 -450 -21 -497 -22 -54 -35 -68 -90 -99 -37 -20 -49 -21 -640 -20 l-603 0 -45 23 c-26 13 -58 41 -75 65 l-30 43 0 486 c0 486 0 487 23 529 24 45 42 59 112 84 39 14 116 17 608 18 497 1 569 -1 615 -15z">
    </path>
  </g>
</svg>
