<svg version="1.0" xmlns="http://www.w3.org/2000/svg" width="1593.333" height="278.667" viewBox="0 0 1195 209">
  <path
    d="M130.5 2.2c-2.7.5-12.2 1.1-21 1.1-15 .2-16.4.4-22.6 3L80.3 9 69.9 6.5C58.3 3.7 42.2 3 33.7 4.9 21.5 7.7 11.2 16 6.1 26.8 1.8 36.3.7 43.3 1.3 57.5c1.3 27.9 16.4 75.4 28.3 89.4 7 8.1 16.8 10.7 25 6.4l3.9-2 3.1 2.4c4.8 3.6 16 5.6 23.5 4.3 3.3-.6 6.6-1.3 7.3-1.6 1-.4 1.4 2.2 1.9 10.8.7 13.9 2 20.5 5.9 28.6 3.5 7.4 9.1 11.7 16.7 12.8 8.4 1.3 22.7-3 29.6-8.9 7.1-5.9 12.1-20.8 13.2-39l.6-10.7h6.1c15.8 0 32.3-8.6 35.6-18.4.9-2.9.8-4.1-.5-7-2.4-5.1-5.9-6.2-15.9-4.9-4.4.5-8.3.9-8.4.7-.2-.1 2.6-6.2 6.1-13.6 17.1-35.1 22.7-66.9 14.2-81.5-5.6-9.5-20.8-19.5-34.5-22.7-7.3-1.8-24.6-1.9-32.5-.4zm31.4 5.4c3.6.9 9.3 3 12.5 4.6 6.5 3.3 16.9 12.5 19.3 17.2 4.1 7.9 2.2 27.8-4.8 49.2-3.8 11.7-12.9 31.6-18.3 40.3-1.4 2.2-2.6 4.5-2.6 5 0 1.7 6.6 2.1 16.2.9 7.8-1 9.9-.9 11.2.1 2.6 2.2 1.8 5.5-2.1 9.2-7.7 7.2-12.6 9-26.3 9.8l-10.4.6-2.4 18.4c-1.3 10.4-3.2 20.7-4.4 23.8-4 10.8-13.8 16.6-28 16.7-6.9.1-8-.2-12-2.9-8.6-6.1-11.7-17.6-11.8-43.3 0-5.6-.2-10.2-.4-10.2s-2.4 1.1-4.9 2.5c-8.4 4.7-22.4 4.2-28.7-1.2-3.7-3.1-3.8-5.5-.4-8.2 2.4-1.9 4.7-2.7 12.7-4.5 2.8-.7 7.7-4.7 7.7-6.3 0-.5-2.4-1.4-5.2-2.1l-5.3-1.2-5 5.3c-2.7 2.9-7.5 8.1-10.6 11.4-8.6 9.4-14.9 9.8-23.1 1.3-8.5-8.8-18.2-33.2-25-63-2.9-12.8-3.3-16.1-3.2-28.5 0-12.1.3-14.8 2.3-19.8 4.4-11.1 12.7-19 23.4-22.2 8.6-2.6 25.2-2.1 37.2 1.1 5.5 1.4 10.5 2.6 11 2.6.6 0 3.9-1.3 7.5-2.8 5.5-2.4 7.9-2.8 16-2.8 5.2-.1 11.5.1 14 .2 2.5.2 7.4-.3 11-1.1 8.9-2.1 24.8-2.1 32.9-.1z" />
  <path
    fill="#2f6792"
    d="m136.6 12.9-4 .6 6.1 3.8c9.2 5.6 19.4 17.1 24.8 27.9 5 10 5.4 13.1 3.4 26.1-.8 5.4-.8 10.2 0 18.8 1.1 11 .8 16-1.5 22.5-1.3 3.6 1.2.1 5.1-7.1 11-20.8 18.5-45.7 18.5-62 0-10.2-1-12.5-8-18.8-10.9-9.8-28-14.3-44.4-11.8zM34.6 16.6c-5.3 1.7-11.1 5-13.8 8-5.2 5.9-9.5 22.7-8.3 32.4 1.6 12.6 3 19.7 6.1 31.9 8.7 33.9 18.8 54.1 27.2 54.1 2.7 0 4.4-1.5 12.7-10.7l9.5-10.7-2.4-2.5c-1.3-1.4-3.4-4.6-4.7-7.1-2.4-4.4-2.4-4.8-2.1-30.5.3-21.3.7-27.5 2.3-34.3 2-8.8 6.1-17.9 10.5-23.7 1.5-2 2.5-3.8 2.2-4-.3-.3-4.5-1.4-9.4-2.5-10.5-2.3-22.9-2.5-29.8-.4z" />
  <path
    fill="#2f6792"
    d="M89.5 17.9c-6.9 3.2-13.2 9.6-17 17.1-2.7 5.3-6.5 18.5-6.5 22.6v2.3l4.8-2.1c6.6-3 17.9-3.1 21.8-.2 4.7 3.5 6.4 6.6 8 15.4 2.7 13.9 1.6 24-3.9 38l-4.5 11.4 3.4 1.2c8.6 2.9 8.8 3.9 9.4 33.4.6 28.5 1.3 31.7 8.1 37.4 3.1 2.7 3.8 2.8 10.4 2.4 10.2-.7 17.2-4.7 20.1-11.7 1.4-3.4 5.9-34 7.1-48.1.5-7 .8-7.7 4.3-11l3.6-3.6-2.9-3.9c-4.1-5.6-16.2-29.9-18.1-36.5-4.9-16.5.7-26.3 15.9-27.8l6.5-.7-2.4-5c-3.1-6.6-10.6-16.4-15.8-20.7-11-9-22-12.8-36.9-12.8-8.3 0-10.1.3-15.4 2.9z" />
  <path
    fill="#2f6792"
    d="M147.3 62.5c-7.9 3.4-5.5 17.1 7.1 40l4.4 7.9 1.2-4.4c.9-3.4.9-6.9 0-15.5-.9-8.1-.9-13-.1-18.8 1.6-11.4 1.8-10.7-4.1-10.7-2.9.1-6.7.7-8.5 1.5zm9.2 1.6c.9 1.3-3.3 5.9-5.4 5.9-1.9-.1-5.1-2.3-5.1-3.7 0-2.9 8.9-4.8 10.5-2.2zM73.6 64c-2.8 1.1-5.5 2.5-6.2 3.2-.8.9-1.4 7.6-1.8 19.8l-.7 18.5 3.1 5.2c3.2 5.5 9.6 10.2 14.5 10.6 2.5.2 2.9-.5 7.2-11.3 3.8-9.5 4.7-13 5.1-19.8.6-11.1-1.4-22.9-4.4-25.9-2.9-2.9-9.8-3-16.8-.3zm15.5 1c3.8 2.1 1.3 7-3.7 7-3.9 0-7.3-6.1-4.1-7.3 2.1-.9 5.8-.7 7.8.3zM159.8 130.2c-2.4 1.9-3.1 6.5-1.2 7.2 5 1.9 19.1-.4 25.3-4.2 2.8-1.7 2.6-1.7-5.9-1.4-6.6.3-9.5 0-11.8-1.2-3.7-1.9-4.4-2-6.4-.4zM88 135c-3.6 4.3-5.1 5.3-11.3 7.2-8.1 2.4-7.3 3.6 2.4 3.7 6.7.1 11.6-1.7 15.8-5.9 3.5-3.6 3.9-6 1.3-8.3-2.8-2.5-3.6-2.2-8.2 3.3zM885 36c-19.9 1.5-29.8 6.2-35.3 16.5-3 5.7-3 18.3.1 24.2 5.4 10.2 11.6 12.6 53.2 19.7 8 1.4 16.8 3.2 19.7 4.1 9.5 2.8 14.6 9.1 14.5 18 0 10-5.6 17-16 20.2-9 2.8-34.3 2.6-43.7-.4-3.8-1.2-8.5-3.3-10.4-4.7-4.7-3.5-8.8-10.1-10.2-16.3l-1.2-5.3h-12.8l.7 4.7c1.2 8.5 4.2 14.8 9 19.3 9.5 8.8 24.8 13 46.9 13 34.3 0 50.9-10.3 50.8-31.6-.1-17.3-10.1-24.3-42.3-29.5-31.3-5.1-41.1-8.2-45.5-14.2-3.2-4.5-2.9-15.1.7-20.4 4.9-7.4 17.1-10.8 35.8-10 20.3.8 29.6 5.9 33.8 18.6l1.9 5.6 6.1.3c7.2.3 7.2.3 4.6-8.9-4.9-17.4-26.3-25.5-60.4-22.9zM1012.3 36c-11.1 1.2-17 2.8-26.3 7.3-10.4 4.9-20.2 14.2-24.3 22.9-8 16.9-7.5 39 1.2 54.1 6.7 11.7 21.4 22.2 37.1 26.4 9.3 2.6 42 2.4 50-.1 11.3-3.6 12.5-3.4 22.2 3.3 4.8 3.4 9.1 6.1 9.5 6.1.5 0 2.4-1.5 4.2-3.4l3.3-3.4-6.9-4.9c-3.8-2.6-8-5.5-9.4-6.4l-2.4-1.7 6.1-6.4c10-10.4 14.4-21.8 14.4-37.3 0-33.6-23.4-54.9-62.5-56.8-4.9-.2-12.3-.1-16.2.3zm26.2 8.5c9.9 2.1 20.6 7.6 27 14 13.1 13.1 16.9 34.4 9.6 53.5-4.5 11.8-15.6 21.8-28.9 26.1-9.3 3-30.1 3.8-39.2 1.5-19.1-4.8-32.3-17-37.1-34.1-1.8-6.4-1.8-20.6 0-27 4.2-15.1 14.3-25.7 29.9-31.5 10.6-4 26.7-5 38.7-2.5zM263 92.5V147h10l.2-23.3.3-23.2 31-.6c33.4-.6 35.2-.8 43.1-6.2 6.7-4.5 10.1-9.2 12-16.7 4.3-16.8-3.8-32.2-19.4-37-5.9-1.8-9.4-2-41.8-2H263v54.5zm73.3-43.2c8.1 4 11.2 9.4 11.2 19.7 0 10-2.7 15-10.5 19.4l-5.5 3.1h-58l-.3-21.5c-.1-11.8 0-22.1.3-22.8.4-1.1 5.8-1.3 28.7-1l28.3.3 5.8 2.8zM1101 92v54h94.1l-.3-3.8-.3-3.7-40.7-.3-40.8-.2V38h-12v54zM555 63.5V75h-14v8h13.9l.3 27.2c.3 30.6.6 32 7 35.1 4 2 16.1 3.4 20.2 2.3 2.1-.5 2.6-1.2 2.6-3.9v-3.2l-4.8.3c-6.2.5-11.9-1.8-13.2-5.3-.6-1.5-1-13.5-1-27.6V83h9.3c5.2 0 9.6-.2 9.8-.5.3-.2.3-2 .1-4l-.4-3.5H566V52h-11v11.5zM389.3 74.5c-13.7 3-22.9 9.9-27.9 20.8-2.5 5.4-2.8 7.3-2.8 15.7.1 12.1 2.5 19 9.2 25.8 8.6 8.8 18.7 12.2 36.1 12.2 20.4 0 34.3-6.4 40.9-18.7 7.7-14.5 5.9-32.9-4.4-44.3-9.6-10.6-32-15.6-51.1-11.5zm29.5 8.2c7 2 13 6.7 16.1 12.8 2.3 4.4 2.6 6.1 2.6 16 0 12.8-1.5 16.8-8.6 22.9-6.4 5.4-12.4 7.1-25.9 7.1-10.6 0-12-.2-17.2-2.8-10.5-5.1-16.1-14.2-16.2-26.2-.1-3.9.5-9.2 1.3-11.8 1.7-6 8.6-13.8 14.7-16.8 8.3-4 21.7-4.5 33.2-1.2zM485 73.6c-12.6 1.9-19.2 4.5-23.3 9.3-5.1 6-4.7 17 .7 22.5 4.2 4.1 10.8 5.9 31.2 8.6 26.7 3.4 30.5 4.9 32 12.5 2.1 11.4-12.2 17.6-35.4 15.4-12-1.1-17.3-3.5-20.7-9.3-1.4-2.4-2.5-5-2.5-5.9 0-1.4-1.1-1.7-6-1.7h-6l.6 2.7c3.1 12.9 10 18.2 26.6 20.5 12.1 1.6 31.8.5 39.3-2.1 11.3-4 14.8-8.1 15.3-18.1l.4-7-4.3-4.4c-5.5-5.4-10.7-7.1-28.4-9.2-18.1-2.1-25.2-3.3-29-4.8-7-2.9-8.6-10.2-3.6-15.9 3.8-4.3 8.3-5.7 20.7-6.4 8.6-.5 11.2-.3 17.2 1.6 7.8 2.3 10.4 4.7 12.4 11.2 1.1 3.8 1.2 3.9 6 3.9 5.7 0 6.5-1.2 4.8-6.7-2.1-6.2-5-9.4-11.4-12.4-8.9-4.1-24.8-6-36.6-4.3zM622.8 74.5c-13 2.6-21.6 8.4-26.6 17.9-2.4 4.7-2.7 6.1-2.7 16.6 0 14.1 2 19.6 9.7 26.5 14 12.6 44.3 13.7 61.9 2.3 3.3-2.1 6.2-3.8 6.6-3.8 1.2 0-.5 17.7-2.2 21.8-4.2 10.4-14.6 14.6-34.6 14-15.9-.4-20.5-2.3-25.1-10.4l-3-5.4h-10.7l1.4 4.1c2.7 7.7 5.3 10.7 11.8 13.8 8.2 4 18.3 5.5 33.2 4.8 24.9-1.1 36.2-8.5 39.5-25.6 1.1-5.8 1.4-61.3.4-69.9l-.7-5.2H672v3.7c0 6.5-1.3 7.2-5.9 3-5.3-4.8-8.9-6.6-16.9-8.3-8.2-1.7-17.5-1.7-26.4.1zm30.8 8.6c11.8 4.4 17.8 13.2 17.8 25.9.1 20.5-16 32-40.2 29-13.5-1.8-21.6-7.1-25.2-16.7-5.2-14-.2-30 11.5-36.1 9.2-4.8 26.2-5.8 36.1-2.1zM722.5 74.6c-6.1 1.5-12.8 6.5-14.1 10.6-1.1 3.6-2.4 1.7-2.4-3.7V76h-11l.2 35.2.3 35.3 5.2.3 5.1.3.5-22.8c.4-26.2 1-28.6 7.7-35.4 5.4-5.4 10.1-6.9 21.4-6.9h7.6v-9l-7.2.1c-4 0-10 .7-13.3 1.5zM773.4 74.5c-20.8 4.5-32.6 19.4-31.1 39.1C744 135.7 761 149 787.5 149c20.1-.1 32.9-5.7 40.7-17.9 4.1-6.5 3.8-7.1-3.1-7.1-5.5 0-5.9.2-7 2.8-1.7 4.1-8.9 10.8-13.6 12.8-6 2.5-21.7 3.1-28.9 1-12.8-3.8-20-11.4-22.1-23.5l-.7-4.1h80.5l-.7-5.5c-1.5-12.8-8.8-24-18.9-29-10.6-5.1-27.4-6.8-40.3-4zm30.6 8.8c7.5 3.6 13.8 10.2 16 16.8 1 3 1.6 5.7 1.4 6.1-.3.5-15.8.8-34.5.8h-34l.6-2.3c1.4-4.7 5.7-13.3 7.8-15.5 1.2-1.3 4-3.3 6.2-4.5 7.5-3.8 11.7-4.7 21.5-4.4 7.8.3 10.5.8 15 3z" />
  </svg>
