<svg viewBox="-5.724 -43.601 2000 600"><path d="M934.957 149.221c-10.479-.345-19.253 7.869-19.599 18.348-.014.417-.014.834 0 1.251v94.24c-45.47-36.517-111.933-29.258-148.449 16.211a105.6 105.6 0 0 0-23.264 66.153c-.996 58.292 45.451 106.354 103.744 107.351 58.292.996 106.354-45.451 107.351-103.743.021-1.203.021-2.405 0-3.607V168.913a18.71 18.71 0 0 0-5.753-14.061 19.447 19.447 0 0 0-14.03-5.538m-24.799 221.525a67.136 67.136 0 0 1-35.136 35.352 66.489 66.489 0 0 1-51.844 0 66.215 66.215 0 0 1-34.951-35.26 65.744 65.744 0 0 1 0-51.258 65.935 65.935 0 0 1 34.951-35.075 66.489 66.489 0 0 1 51.844 0 67.133 67.133 0 0 1 35.136 35.352 65.309 65.309 0 0 1 0 51.074M1155.344 270.69c-41.243-41.206-108.082-41.176-149.288.067a105.558 105.558 0 0 0-30.886 74.574c-.996 58.293 45.451 106.355 103.744 107.352 58.292.996 106.354-45.452 107.351-103.744.021-1.202.021-2.404 0-3.607a108.62 108.62 0 0 0-7.815-40.521 103.057 103.057 0 0 0-23.106-34.121m-13.63 100.056a68.552 68.552 0 0 1-14.153 21.015 67.704 67.704 0 0 1-21.015 14.337 66.393 66.393 0 0 1-51.812 0 66.114 66.114 0 0 1-34.982-35.259 65.746 65.746 0 0 1 0-51.259 65.843 65.843 0 0 1 34.982-34.982 66.393 66.393 0 0 1 51.812 0 67.672 67.672 0 0 1 21.015 14.338 68.512 68.512 0 0 1 14.153 21.014 65.657 65.657 0 0 1 0 51.074M1591.747 259.368a18.456 18.456 0 0 0-1.568-7.538 22.186 22.186 0 0 0-4.277-6.154 18.625 18.625 0 0 0-6.153-4.246 19.97 19.97 0 0 0-7.723-1.508 19.197 19.197 0 0 0-10.554 3.077l-112.7 73.319V169.097a19.105 19.105 0 0 0-5.753-14.03 18.83 18.83 0 0 0-13.938-5.846c-10.857-.068-19.715 8.679-19.783 19.537v262.23a19.203 19.203 0 0 0 5.754 13.938 18.925 18.925 0 0 0 14.029 5.846 18.677 18.677 0 0 0 13.876-5.846 19.203 19.203 0 0 0 5.754-13.938v-67.934l22.983-15.076 87.103 97.81a18.21 18.21 0 0 0 13.168 5.076c2.65.03 5.278-.483 7.723-1.508a18.059 18.059 0 0 0 6.153-4.215 21.518 21.518 0 0 0 4.276-6.338 18.457 18.457 0 0 0 1.57-7.538 19.974 19.974 0 0 0-5.446-13.753l-80.979-91.226 78.949-51.258a17.563 17.563 0 0 0 7.536-15.66M1264.752 298.505a67.462 67.462 0 0 1 21.138-14.153 64.787 64.787 0 0 1 25.813-5.169 62.9 62.9 0 0 1 22.983 4.123 71.496 71.496 0 0 1 20.152 12.307 20.067 20.067 0 0 0 12.83 4.369 18.986 18.986 0 0 0 14.215-5.538 19.478 19.478 0 0 0 5.568-14.153 19.232 19.232 0 0 0-6.8-14.892 100.612 100.612 0 0 0-68.796-25.629c-58.301 0-105.562 47.262-105.562 105.562-.146 58.216 46.929 105.527 105.145 105.674a105.413 105.413 0 0 0 69.214-25.679 19.81 19.81 0 0 0 6.153-14.491c.346-10.479-7.868-19.253-18.347-19.599a18.666 18.666 0 0 0-1.252 0 21.173 21.173 0 0 0-12.461 4.123 66.958 66.958 0 0 1-19.968 12.152 63.524 63.524 0 0 1-22.983 4.062 64.773 64.773 0 0 1-25.813-5.169 67.994 67.994 0 0 1-21.137-14.152c-25.862-25.708-25.988-67.514-.281-93.376l.281-.28M1983.262 252.969a36.924 36.924 0 0 0-13.292-8 77.137 77.137 0 0 0-17.506-4.061 148.563 148.563 0 0 0-17.814-1.108 103.293 103.293 0 0 0-35.443 6.154 108.261 108.261 0 0 0-30.768 17.353v-3.938c-.431-10.883-9.603-19.357-20.486-18.927-10.279.406-18.521 8.647-18.927 18.927v171.897c.43 10.884 9.602 19.357 20.485 18.928 10.28-.406 18.521-8.647 18.928-18.928v-85.934a65.028 65.028 0 0 1 5.168-25.844 66.313 66.313 0 0 1 14.123-20.983 67.416 67.416 0 0 1 21.014-14.153 64.947 64.947 0 0 1 25.845-5.169 69.393 69.393 0 0 1 25.813 4.707 20.985 20.985 0 0 0 8.308 2.062 19.627 19.627 0 0 0 7.723-1.508 18.449 18.449 0 0 0 6.153-4.245 21.896 21.896 0 0 0 4.246-6.153 18.973 18.973 0 0 0 1.6-7.723 17.444 17.444 0 0 0-5.291-13.2M1800.104 304.966c-16.765-39.188-55.187-64.69-97.81-64.919-58.283-.017-105.545 47.217-105.562 105.501v.03c-.011 58.318 47.256 105.604 105.573 105.614a105.593 105.593 0 0 0 68.97-25.619c.277-.276.708-.646.77-.738a22.406 22.406 0 0 0 4.461-4.861c6.336-9.125 4.076-21.658-5.045-27.998a19.785 19.785 0 0 0-24.338 2.185c-.646.585-2.492 2.308-2.799 2.554l-.277.246a62.74 62.74 0 0 1-18.953 11.076 66.097 66.097 0 0 1-22.798 3.754 65.124 65.124 0 0 1-21.046-3.385 68.12 68.12 0 0 1-18.46-9.507 66.285 66.285 0 0 1-14.614-14.707 64.613 64.613 0 0 1-9.415-18.952h149.253a19.356 19.356 0 0 0 14.029-5.569 18.46 18.46 0 0 0 5.754-14.03 105.84 105.84 0 0 0-7.723-40.612m-161.345 21.012a62.01 62.01 0 0 1 9.229-18.952 66.067 66.067 0 0 1 14.707-14.707 69.863 69.863 0 0 1 18.676-9.507 66.068 66.068 0 0 1 20.922-3.385 65.165 65.165 0 0 1 20.799 3.385 67.354 67.354 0 0 1 33.167 24.214 63.444 63.444 0 0 1 9.538 18.952zM1915.942 422.343c-7.543.119-13.562 6.331-13.443 13.875s6.332 13.562 13.875 13.443c7.495-.118 13.494-6.254 13.445-13.75-.085-7.578-6.297-13.652-13.875-13.568h-.002m0 24.398c-5.975.272-11.039-4.352-11.311-10.326-.271-5.976 4.352-11.04 10.327-11.312 5.975-.271 11.039 4.352 11.311 10.327.009.19.013.382.011.573.204 5.723-4.27 10.527-9.992 10.731-.115.005-.23.007-.346.007"/><path d="M1919.081 436.342v-.185a3.476 3.476 0 0 0 2.8-3.076 3.815 3.815 0 0 0-1.323-3.077 8.675 8.675 0 0 0-4.707-.984 27.066 27.066 0 0 0-5.2.431v13.538h3.077v-5.446h1.477c1.754 0 2.554.646 2.83 2.154a11.667 11.667 0 0 0 1.047 3.292h3.415a10.381 10.381 0 0 1-1.016-3.385 3.938 3.938 0 0 0-2.462-3.292m-3.723-.985h-1.508v-3.908a7.457 7.457 0 0 1 1.754 0c1.97 0 2.893.831 2.893 2.062s-1.415 2-3.076 2M707.494 193.557c-1.938-1.539-20.029-15.199-58.181-15.199a185.562 185.562 0 0 0-30.061 2.584c-7.384-50.612-49.228-75.288-51.104-76.395l-10.245-5.908-6.738 9.723a137.318 137.318 0 0 0-18.214 42.582c-6.831 28.891-2.677 56.027 11.999 79.226-17.722 9.876-46.151 12.307-51.904 12.522H22.367c-12.294.017-22.27 9.952-22.337 22.245a338.69 338.69 0 0 0 20.614 120.946c16.214 42.521 40.336 73.842 71.719 93.01 35.167 21.537 92.302 33.844 157.067 33.844a468.88 468.88 0 0 0 87.226-7.907 364.649 364.649 0 0 0 113.839-41.352 312.969 312.969 0 0 0 77.688-63.596c37.29-42.213 59.505-89.226 76.026-131.007h6.584c40.828 0 65.935-16.338 79.78-30.029a87.08 87.08 0 0 0 21.045-31.167l2.923-8.553z"/><path d="M65.995 228.909h63.073a5.507 5.507 0 0 0 5.507-5.507V167.22a5.507 5.507 0 0 0-5.476-5.538H65.995a5.507 5.507 0 0 0-5.507 5.507V223.401a5.507 5.507 0 0 0 5.507 5.508zM152.913 228.909h63.073a5.507 5.507 0 0 0 5.507-5.507V167.22a5.507 5.507 0 0 0-5.477-5.538h-63.104a5.537 5.537 0 0 0-5.538 5.538v56.181a5.54 5.54 0 0 0 5.539 5.508M241.153 228.909h63.073a5.507 5.507 0 0 0 5.507-5.507V167.22a5.507 5.507 0 0 0-5.477-5.538h-63.104a5.507 5.507 0 0 0-5.507 5.507V223.401a5.51 5.51 0 0 0 5.508 5.508zM328.348 228.909h63.073a5.537 5.537 0 0 0 5.538-5.507V167.22a5.537 5.537 0 0 0-5.538-5.538h-63.073a5.507 5.507 0 0 0-5.507 5.507V223.401a5.508 5.508 0 0 0 5.507 5.508zM152.913 148.083h63.073a5.539 5.539 0 0 0 5.507-5.538V86.364a5.507 5.507 0 0 0-5.507-5.507h-63.073a5.538 5.538 0 0 0-5.538 5.507v56.181a5.568 5.568 0 0 0 5.538 5.538M241.153 148.083h63.073a5.539 5.539 0 0 0 5.507-5.538V86.364a5.507 5.507 0 0 0-5.507-5.507h-63.073a5.507 5.507 0 0 0-5.507 5.507v56.181a5.539 5.539 0 0 0 5.507 5.538M328.348 148.083h63.073a5.568 5.568 0 0 0 5.538-5.538V86.364a5.537 5.537 0 0 0-5.538-5.507h-63.073a5.507 5.507 0 0 0-5.507 5.507v56.181a5.539 5.539 0 0 0 5.507 5.538M328.348 67.227h63.073a5.538 5.538 0 0 0 5.538-5.507V5.507A5.537 5.537 0 0 0 391.421 0h-63.073a5.506 5.506 0 0 0-5.507 5.507v56.212a5.508 5.508 0 0 0 5.507 5.508M416.312 228.909h63.073a5.537 5.537 0 0 0 5.538-5.507V167.22a5.537 5.537 0 0 0-5.538-5.538h-63.073a5.508 5.508 0 0 0-5.507 5.507V223.401a5.508 5.508 0 0 0 5.507 5.508"/></svg>