<svg xmlns="http://www.w3.org/2000/svg" viewBox="-0.331 -0.331 55.259 55.433"><path d="M51.196 0H3.4A3.4 3.4 0 0 0 0 3.4v47.796a3.4 3.4 0 0 0 3.556 3.398l47.796.003a3.403 3.403 0 0 0 3.245-3.398V3.4A3.4 3.4 0 0 0 51.196 0zM37.681 3.869c2.063-2.035 5.699-2.831 8.146-1.425 2.092 1.202 6.17 5.905 6.17 5.905 2.922 3.173-1.265 5.611-1.265 5.611l-18.29 11.773-5.146-7.96zM2.32 8.984C3.514 6.88 8.188 2.776 8.188 2.776c3.154-2.938 5.579 1.274 5.579 1.274l11.704 18.4-7.913 5.178L3.736 17.18C1.713 15.104.922 11.446 2.32 8.984zm14.647 42.087c-2.063 2.036-5.699 2.831-8.146 1.425-2.091-1.202-6.171-5.904-6.171-5.904-2.92-3.174 1.267-5.612 1.267-5.612l18.29-11.773 5.146 7.96zm35.42-5.116c-1.194 2.104-5.869 6.209-5.869 6.209-3.153 2.938-5.578-1.275-5.578-1.275l-11.704-18.4 7.913-5.178L50.97 37.76c2.025 2.076 2.815 5.734 1.417 8.195z" fill="#79bd28"/></svg>
