<svg data-name="Layer 1" xmlns="http://www.w3.org/2000/svg" viewBox="0 0 1344.652 497.44"><path d="M203.777 148.858c-10.814-12.762-20.132-25.814-22.024-28.493a.426.426 0 0 0-.7 0c-1.892 2.679-11.208 15.73-22.023 28.493-92.691 118.085 14.63 197.755 14.63 197.755l.87.604c.814 12.326 2.835 30.041 2.835 30.041h8.077s2.013-17.638 2.83-29.96l.875-.685s107.32-79.67 14.63-197.755ZM181.404 344.88s-4.812-4.104-6.11-6.16l-.012-.221 5.82-128.56a.303.303 0 0 1 .604 0l5.82 128.56-.012.22c-1.298 2.056-6.11 6.161-6.11 6.161ZM381.829 318.559l-44.561-108.557-.127-.31h-34.749v7.269l5.58.009a6.335 6.335 0 0 1 6.323 6.398l-1.028 109.348a6.305 6.305 0 0 1-6.2 6.27l-5.709.069v7.226h33.817v-7.222l-3.48-.072a6.37 6.37 0 0 1-6.206-6.334V229.641L374.1 346.205a4.485 4.485 0 0 0 8.278 0l47.502-113.992.707 100.417a6.35 6.35 0 0 1-6.257 6.38l-3.571.045v7.226h39.575v-7.228l-5.419-.042a6.362 6.362 0 0 1-6.255-6.314l-.342-109.329a6.359 6.359 0 0 1 6.236-6.355l5.782-.056v-7.266H426.54ZM693.4 337.316a5.885 5.885 0 0 1-1.694-4.391v-53.582c0-10.167-3.017-18.206-8.968-23.897-5.947-5.682-14.112-8.564-24.267-8.564-14.34 0-25.605 5.796-33.481 17.227a.651.651 0 0 1-1.168-.204l-3.704-14.311h-6.19l-15.935 9.12-.001 5.02h4.112a6.699 6.699 0 0 1 4.605 1.518 5.852 5.852 0 0 1 1.675 4.567v63.106a5.809 5.809 0 0 1-6.087 6.086h-3.986v7.27h36.64v-7.27h-3.986a5.808 5.808 0 0 1-6.086-6.086v-41.767a38.68 38.68 0 0 1 3.444-15.777 31.247 31.247 0 0 1 10.2-12.68 26.57 26.57 0 0 1 16.074-4.941c7.03 0 12.272 2.214 15.581 6.58 3.339 4.415 5.031 10.114 5.031 16.938v51.647a5.806 5.806 0 0 1-6.085 6.086h-3.987v7.27h36.642v-7.27h-3.987a5.882 5.882 0 0 1-4.392-1.695ZM1029.128 217.885a71.483 71.483 0 0 0-33.939-8.194h-48.044v7.271h4.655a7.838 7.838 0 0 1 7.249 7.248v107.552a6.952 6.952 0 0 1-2.275 4.973 6.868 6.868 0 0 1-4.974 2.276h-4.655v7.27h48.044a71.483 71.483 0 0 0 33.939-8.193 61.785 61.785 0 0 0 24.506-23.626c6.022-10.23 9.076-22.502 9.076-36.477 0-13.97-3.054-26.242-9.076-36.474a61.81 61.81 0 0 0-24.506-23.626Zm14.374 60.1c0 12.769-2.294 23.64-6.82 32.31-4.515 8.652-10.543 15.166-17.914 19.362a48.62 48.62 0 0 1-24.353 6.327h-9.686a6.861 6.861 0 0 1-4.973-2.275 6.945 6.945 0 0 1-2.275-4.974V227.236a6.867 6.867 0 0 1 2.275-4.973 6.964 6.964 0 0 1 4.973-2.275h9.686a48.62 48.62 0 0 1 24.353 6.328c7.368 4.193 13.395 10.707 17.915 19.36 4.525 8.676 6.819 19.546 6.819 32.31ZM1175.851 285.214c-4.36-5.062-12.867-9.374-22.934-11.67 13.845-6.873 20.862-16.647 20.862-29.068a31.331 31.331 0 0 0-5.414-18.104 35.9 35.9 0 0 0-15.219-12.278 55.037 55.037 0 0 0-22.673-4.403h-53.891v7.271h4.268a7.835 7.835 0 0 1 7.248 7.248v107.552a6.955 6.955 0 0 1-2.275 4.973 6.868 6.868 0 0 1-4.973 2.276h-4.656v7.27h58.505a66.18 66.18 0 0 0 24.689-4.49 40.798 40.798 0 0 0 17.84-13.238c4.373-5.809 6.59-12.916 6.59-21.124a33.037 33.037 0 0 0-7.967-22.215Zm-67.045 48.495a6.948 6.948 0 0 1-2.276-4.974v-48.312h27.781c9.76 0 17.334 2.527 22.51 7.512 5.168 4.98 7.788 11.54 7.788 19.494a29.601 29.601 0 0 1-3.43 13.812 26.801 26.801 0 0 1-10.273 10.65c-4.545 2.715-10.129 4.093-16.595 4.093h-20.532a6.861 6.861 0 0 1-4.973-2.275Zm-2.276-63.583v-42.89a6.868 6.868 0 0 1 2.276-4.973 6.964 6.964 0 0 1 4.973-2.275h13.206c9.492 0 16.54 2.359 20.944 7.011 4.408 4.661 6.643 10.737 6.643 18.059 0 7.582-2.074 13.725-6.166 18.26-4.08 4.517-10.31 6.808-18.515 6.808ZM553.893 253.238a54.789 54.789 0 0 0-51.232.001 47.342 47.342 0 0 0-18.303 18.007 56.146 56.146 0 0 0 0 53.382 47.31 47.31 0 0 0 18.303 18.009 54.789 54.789 0 0 0 51.232-.001 47.306 47.306 0 0 0 18.302-18.008 56.142 56.142 0 0 0 0-53.382 47.353 47.353 0 0 0-18.303-18.008Zm7.395 44.7c0 12.347-3.025 22.276-8.99 29.51-5.944 7.206-14.026 10.86-24.021 10.86-9.999 0-18.08-3.654-24.02-10.86-5.966-7.23-8.99-17.159-8.99-29.51s3.024-22.28 8.99-29.512c5.94-7.206 14.02-10.86 24.02-10.86 9.996 0 18.078 3.654 24.02 10.86 5.966 7.235 8.99 17.164 8.99 29.512ZM906.825 253.238a54.789 54.789 0 0 0-51.232.001 47.342 47.342 0 0 0-18.303 18.007 56.146 56.146 0 0 0 0 53.382 47.31 47.31 0 0 0 18.303 18.009 54.789 54.789 0 0 0 51.232-.001 47.306 47.306 0 0 0 18.302-18.008 56.146 56.146 0 0 0 0-53.382 47.353 47.353 0 0 0-18.302-18.008Zm7.395 44.7c0 12.347-3.025 22.276-8.99 29.51-5.943 7.206-14.026 10.86-24.021 10.86-9.999 0-18.08-3.654-24.02-10.86-5.966-7.23-8.99-17.159-8.99-29.51 0-12.351 3.024-22.28 8.99-29.512 5.94-7.206 14.02-10.86 24.02-10.86 9.996 0 18.078 3.654 24.02 10.86 5.966 7.235 8.99 17.164 8.99 29.512ZM764.37 246.882a47.243 47.243 0 0 0-21.873 5.088 39.554 39.554 0 0 0-15.494 13.865 35.071 35.071 0 0 0-5.616 19.195 33.88 33.88 0 0 0 4.294 16.957 37.509 37.509 0 0 0 11.403 12.357l-14.253 19.374a7.889 7.889 0 0 0 6.355 12.563h4.094a30.828 30.828 0 0 0-9.404 9.66 25.785 25.785 0 0 0-3.898 13.447c0 8.585 3.796 15.664 11.283 21.042 7.434 5.34 17.828 8.047 30.892 8.047a74.996 74.996 0 0 0 25.742-4.36 45.946 45.946 0 0 0 19.332-12.825 29.893 29.893 0 0 0 7.37-20.16c0-8.182-3.001-14.037-10.037-19.578-6.02-4.735-15.392-7.238-27.104-7.238h-40.008a.255.255 0 0 1-.213-.396l10.383-14.042a37.017 37.017 0 0 0 7.693 2.586 41.17 41.17 0 0 0 8.051.715 49.195 49.195 0 0 0 22.574-5.087 40.119 40.119 0 0 0 15.694-13.863 34.643 34.643 0 0 0 5.719-19.199c0-7.419-3.559-20.927-13.384-27.816.026-.07.075-.065.092-.06l21.547 2.41V249.7h-34.441a50.99 50.99 0 0 0-16.794-2.818Zm12.043 62.571a25.308 25.308 0 0 1-12.044 3.062 24.84 24.84 0 0 1-17.576-7.112c-4.972-4.707-7.493-11.562-7.493-20.373s2.521-15.666 7.493-20.374a24.847 24.847 0 0 1 17.576-7.11 25.35 25.35 0 0 1 12.044 3.06 24.27 24.27 0 0 1 9.37 9.177c2.425 4.066 3.655 9.196 3.655 15.247 0 6.055-1.23 11.185-3.654 15.246a24.211 24.211 0 0 1-9.37 9.177Zm-27.163 36.828h27.112c7.531 0 12.322 1.46 15.532 4.734a17.222 17.222 0 0 1 4.79 12.534 21.661 21.661 0 0 1-8.666 17.827c-5.79 4.538-13.61 6.839-23.247 6.839-8.443 0-15.357-1.865-20.549-5.545-5.136-3.64-7.74-9.058-7.74-16.1a21.273 21.273 0 0 1 3.638-12.103 23.377 23.377 0 0 1 9.13-8.186ZM1204.21 345.07a12.343 12.343 0 0 1-4.672-4.638 13.172 13.172 0 0 1 0-12.894 12.347 12.347 0 0 1 4.673-4.638 14.064 14.064 0 0 1 13.42 0 12.34 12.34 0 0 1 4.674 4.638 13.166 13.166 0 0 1 0 12.894 12.336 12.336 0 0 1-4.673 4.637 14.068 14.068 0 0 1-13.421 0Zm12.28-1.476a10.197 10.197 0 0 0 3.883-3.935 12.158 12.158 0 0 0 0-11.348 10.2 10.2 0 0 0-3.883-3.936 11.607 11.607 0 0 0-11.137 0 10.193 10.193 0 0 0-3.882 3.936 12.158 12.158 0 0 0 0 11.348 10.19 10.19 0 0 0 3.882 3.935 11.607 11.607 0 0 0 11.137 0Zm-10.98-3.496v-.879l.176-.14h.598a.783.783 0 0 0 .737-.738v-9.275a.783.783 0 0 0-.737-.738h-.598l-.175-.14v-.879l.175-.14h5.2a5.694 5.694 0 0 1 3.514.983 3.316 3.316 0 0 1 1.3 2.81 3.396 3.396 0 0 1-1.002 2.443 4.214 4.214 0 0 1-2.547 1.247l1.195.351 2.319 3.654a.8.8 0 0 0 .667.422h.598l.14.14v.879l-.14.14h-3.057l-.21-.14-3.233-5.376h-.773v3.62a.785.785 0 0 0 .737.737h.598l.176.14v.879l-.176.14h-5.306Zm5.025-6.535a2.567 2.567 0 0 0 1.898-.667 2.62 2.62 0 0 0 .667-1.933 2.797 2.797 0 0 0-.632-1.915 2.135 2.135 0 0 0-1.687-.72h-.387a.785.785 0 0 0-.737.738v4.497Z" fill="#00684a"/></svg>